<!-- <svg width="84" height="33" viewBox="0 0 84 33" fill="none" xmlns="http://www.w3.org/2000/svg">
<path d="M2.08 26H7.41C13.572 26 16.926 22.854 16.926 17.082C16.926 11.206 13.468 7.878 7.436 7.878H2.08V26ZM5.746 22.62V11.232H7.358C11.206 11.232 13.234 12.74 13.234 16.926C13.234 21.242 11.18 22.62 7.046 22.62H5.746ZM23.3659 12.896C21.0779 12.896 18.9459 13.728 17.3859 15.496L19.9339 17.628C20.9739 16.458 22.0659 15.964 23.2099 15.964C24.6659 15.964 25.5239 16.718 25.5239 17.888V18.174H22.1439C20.8439 18.174 19.8039 18.356 18.9719 18.772C17.8019 19.37 17.1259 20.462 17.1259 21.97C17.1259 24.492 19.1279 26.286 21.9099 26.286C23.2099 26.286 24.6399 25.818 25.5499 24.518L25.8099 26H29.0339V17.888C29.0339 14.82 26.8759 12.896 23.3659 12.896ZM22.4819 23.374C21.2859 23.374 20.6359 22.802 20.6359 22.022C20.6359 21.632 20.7919 21.32 21.1039 21.112C21.4159 20.878 21.9099 20.774 22.6379 20.774H25.5239C25.4979 22.256 24.1199 23.374 22.4819 23.374ZM34.9974 26.286C37.4154 26.286 40.1194 24.96 40.1194 21.866C40.1194 17.108 33.6194 18.304 33.6194 16.484C33.6194 15.99 34.1134 15.574 34.9714 15.574C36.3234 15.574 36.9214 16.51 37.3114 17.212L40.0154 15.704C39.0274 13.988 37.3374 12.896 35.0494 12.896C32.6574 12.896 30.2914 14.092 30.2914 16.77C30.2914 21.424 36.6614 20.254 36.6614 22.23C36.6614 22.75 36.1934 23.4 34.9194 23.4C33.1774 23.4 32.6834 22.178 32.3714 21.372L29.5894 22.62C30.1874 24.518 32.2414 26.286 34.9974 26.286ZM48.658 12.896C47.02 12.896 45.746 13.416 44.914 14.508V7.878H41.378V26H44.914V21.112C44.914 17.628 45.486 15.964 47.54 15.964C49.048 15.964 49.776 16.77 49.776 18.486V26H53.286V17.602C53.286 14.638 51.57 12.896 48.658 12.896ZM67.6219 26.442C72.2759 26.442 74.6939 24.076 74.6939 19.318V7.878H71.0279V19.058C71.0279 21.788 70.2739 22.984 67.6219 22.984C64.9699 22.984 64.2419 21.814 64.2419 19.032V7.878H60.5759V19.448C60.5759 24.128 62.9679 26.442 67.6219 26.442ZM77.4201 26H81.0861V7.878H77.4201V26Z" fill="white"/>
</svg> -->

<svg version="1.0" xmlns="http://www.w3.org/2000/svg" width="1500.000000pt" height="1500.000000pt" viewBox="0 0 360.000000 360.000000" preserveAspectRatio="xMidYMid meet">

<g transform="translate(0.000000,360.000000) scale(0.100000,-0.100000)" fill="#000000" stroke="none">
<path d="M789 3193 c-13 -16 -12 -17 4 -4 9 7 17 15 17 17 0 8 -8 3 -21 -13z"/>
<path d="M744 3158 l-19 -23 23 19 c21 18 27 26 19 26 -2 0 -12 -10 -23 -22z"/>
<path d="M638 3069 c-193 -176 -361 -437 -447 -697 -63 -190 -75 -273 -75 -527 -1 -203 2 -242 22 -335 97 -445 337 -806 707 -1066 99 -69 310 -173 432 -214 329 -109 680 -117 1018 -25 568 154 1037 604 1228 1176 54 161 74 267 59 317 -23 77 -111 132 -185 117 -87 -19 -131 -79 -141 -195 -22 -235 -105 -466 -243 -674 -85 -129 -272 -317 -401 -405 -240 -162 -518 -255 -803 -268 -643 -29 -1239 334 -1514 922 -237 505 -193 1117 113 1580 80 121 106 154 219 268 53 53 95 97 92 97 -2 0 -39 -32 -81 -71z"/>
<path d="M1395 2985 c-34 -54 -43 -84 -15 -50 7 8 16 15 21 15 5 0 9 -85 9 -190 0 -156 3 -190 14 -190 13 0 18 62 29 409 1 34 -2 55 -10 58 -6 2 -28 -21 -48 -52z"/>
<path d="M1528 3014 c-35 -18 -43 -51 -26 -95 11 -28 12 -43 2 -84 -18 -73 -17 -190 1 -225 31 -60 109 -45 166 33 126 170 112 366 -27 382 -38 5 -39 5 -7 -5 95 -30 119 -155 56 -287 -29 -62 -97 -143 -120 -143 -34 0 -54 125 -34 215 5 26 10 30 34 27 l28 -4 -20 40 c-19 38 -20 44 -6 82 14 40 14 41 -6 35 -30 -10 -20 16 12 32 l24 13 -25 -1 c-14 0 -37 -6 -52 -15z"/>
<path d="M1805 3009 c-24 -20 -26 -26 -21 -63 10 -63 10 -84 -4 -176 -15 -101 -4 -161 35 -186 53 -35 124 14 183 124 49 93 58 194 23 260 -16 30 -69 62 -101 61 -20 -1 -21 -2 -5 -6 103 -26 129 -157 60 -299 -28 -58 -95 -134 -117 -134 -24 0 -38 46 -38 128 0 104 5 120 36 114 28 -5 29 -1 8 40 -15 29 -15 43 2 97 6 20 4 22 -14 16 -18 -5 -21 -3 -16 10 4 9 16 21 28 25 20 8 19 9 -5 9 -15 1 -39 -9 -54 -20z"/>
<path d="M2160 2948 c-38 -98 -107 -364 -97 -374 23 -23 79 121 132 340 29 119 29 116 11 116 -9 0 -27 -33 -46 -82z"/>
<path d="M2064 2975 c-8 -34 1 -55 25 -55 22 0 35 30 26 60 -9 29 -43 26 -51 -5z"/>
<path d="M2194 2666 c-11 -29 1 -61 24 -64 20 -3 22 1 22 37 0 35 -3 41 -20 41 -11 0 -23 -6 -26 -14z"/>
<path d="M1836 2258 c-3 -7 -7 -33 -11 -57 -8 -60 -56 -173 -104 -245 -31 -47 -38 -63 -30 -78 19 -36 63 -20 90 33 18 36 23 39 62 39 23 0 58 3 77 6 34 6 36 4 57 -39 23 -48 54 -67 78 -47 24 20 18 45 -41 163 -82 162 -135 237 -170 237 -3 0 -6 -6 -8 -12z m72 -177 c32 -56 29 -67 -20 -74 -23 -3 -45 -4 -49 -1 -8 5 31 114 41 114 3 0 16 -17 28 -39z"/>
<path d="M2350 2244 c12 -30 13 -274 2 -274 -4 0 -30 47 -56 104 -55 119 -109 186 -149 186 l-27 0 0 -169 c0 -93 -5 -182 -10 -197 -13 -32 2 -54 36 -54 35 0 44 29 53 158 8 130 4 131 62 -12 39 -97 80 -146 120 -146 18 0 32 7 39 19 6 11 10 89 10 183 0 145 -2 167 -20 196 -14 22 -27 32 -45 32 -22 0 -24 -2 -15 -26z"/>
<path d="M2566 2259 c-38 -5 -72 -11 -74 -14 -9 -9 29 -43 54 -49 23 -6 24 -9 23 -104 0 -53 -3 -115 -7 -137 -7 -37 -10 -40 -45 -43 -41 -4 -50 -24 -18 -42 22 -11 98 -12 176 -2 45 6 50 10 50 32 0 22 -5 25 -42 28 l-43 3 0 112 c0 62 -3 122 -6 135 -5 19 -2 22 20 22 36 0 66 17 60 34 -6 15 -48 37 -67 35 -7 -1 -43 -6 -81 -10z"/>
<path d="M563 2241 c-62 -29 -95 -92 -101 -192 -4 -70 -2 -82 21 -121 33 -58 88 -88 158 -88 124 0 212 124 180 252 -7 29 -13 74 -12 99 l1 47 -53 5 c-28 4 -74 9 -102 12 -38 4 -60 1 -92 -14z m131 -71 c19 -17 40 -47 46 -66 43 -129 -84 -251 -171 -165 -26 26 -29 36 -29 90 0 70 12 106 48 144 33 35 63 34 106 -3z"/>
<path d="M1365 2251 c-84 -35 -134 -161 -105 -264 45 -163 297 -186 376 -35 23 44 18 111 -9 136 -27 26 -36 26 -122 10 -70 -14 -81 -27 -40 -54 19 -12 36 -15 70 -10 43 7 45 6 45 -16 0 -32 -57 -86 -104 -99 -77 -21 -146 46 -146 144 0 115 60 150 187 110 49 -15 57 -16 81 -2 18 10 27 23 27 39 0 23 -4 25 -50 26 -27 1 -63 7 -78 13 -33 13 -103 14 -132 2z"/>
<path d="M2900 2253 c-68 -26 -120 -112 -120 -200 0 -63 13 -99 48 -137 37 -39 81 -56 147 -56 95 0 170 49 163 106 -4 40 -35 42 -82 4 -44 -34 -98 -40 -146 -15 -58 30 -64 143 -10 197 33 33 61 35 136 11 49 -15 54 -15 78 1 16 10 26 26 26 41 0 22 -4 25 -39 25 -21 0 -58 7 -81 15 -43 15 -92 18 -120 8z"/>
<path d="M889 2248 c0 -2 -2 -88 -5 -192 -5 -197 -1 -216 37 -216 23 0 39 36 39 85 0 19 4 37 10 40 5 3 38 -21 73 -53 68 -63 107 -79 151 -62 39 14 30 42 -19 58 -22 7 -49 22 -60 33 -20 20 -20 21 -1 32 51 31 86 71 92 104 22 117 -90 201 -211 159 -42 -14 -50 -14 -68 -1 -19 14 -36 19 -38 13z m226 -72 c24 -17 22 -71 -3 -105 -28 -38 -68 -55 -106 -44 -29 8 -31 12 -34 62 -3 55 7 77 43 91 31 13 79 11 100 -4z"/>
<path d="M920 1623 c-176 -18 -560 -110 -560 -135 0 -4 5 -8 11 -8 26 0 205 -95 301 -159 194 -130 322 -259 459 -461 166 -247 402 -399 617 -400 58 0 139 17 148 31 7 11 -94 204 -172 330 -68 110 -130 178 -245 270 -131 104 -117 105 31 1 150 -105 233 -208 366 -452 73 -133 75 -134 117 -56 19 36 22 56 22 156 -1 127 -14 184 -70 306 -50 109 -129 220 -229 320 -154 154 -292 227 -479 253 -73 10 -237 12 -317 4z"/>
<path d="M2475 1530 c-125 -18 -216 -60 -315 -145 -68 -59 -152 -157 -182 -212 l-22 -41 36 -79 c20 -43 41 -95 48 -115 l12 -38 39 60 c44 65 103 121 192 182 72 49 84 45 17 -6 -71 -54 -160 -152 -200 -221 -35 -59 -35 -61 -32 -162 l3 -103 34 0 c46 0 150 34 212 70 81 47 173 140 253 254 123 178 301 330 494 422 l79 38 -39 13 c-78 28 -282 72 -376 83 -107 11 -177 11 -253 0z"/>
</g>
</svg>